HIERARCHY
ROOT Hips
{
	OFFSET 0.000000 97.167313 0.000000
	CHANNELS 6 Xposition Yposition Zposition Xrotation Yrotation Zrotation
	JOINT Spine
	{
		OFFSET 0.000000 13.784798 0.064400
		CHANNELS 3 Xrotation Yrotation Zrotation
		JOINT Spine1
		{
			OFFSET 0.000000 12.037903 0.404700
			CHANNELS 3 Xrotation Yrotation Zrotation
			JOINT Spine2
			{
				OFFSET 0.000000 17.795601 0.420200
				CHANNELS 3 Xrotation Yrotation Zrotation
				JOINT Neck
				{
					OFFSET 0.000000 39.131302 11.954600
					CHANNELS 3 Xrotation Yrotation Zrotation
					JOINT Head
					{
						OFFSET 0.000000 14.456192 15.627699
						CHANNELS 3 Xrotation Yrotation Zrotation
						JOINT HeadTop_End
						{
							OFFSET 0.000000 15.703506 7.603401
							CHANNELS 3 Xrotation Yrotation Zrotation
							End Site
							{
								OFFSET 0.000000 17.447403 0.000000
							}
						}
					}
				}
				JOINT LeftShoulder
				{
					OFFSET 17.399500 24.608795 1.168800
					CHANNELS 3 Xrotation Yrotation Zrotation
					JOINT LeftArm
					{
						OFFSET 18.980635 5.765305 1.818600
						CHANNELS 3 Xrotation Yrotation Zrotation
						JOINT LeftForeArm
						{
							OFFSET 49.290169 0.000000 0.000000
							CHANNELS 3 Xrotation Yrotation Zrotation
							JOINT LeftHand
							{
								OFFSET 31.562012 0.000000 0.000000
								CHANNELS 3 Xrotation Yrotation Zrotation
								JOINT LeftHandThumb1
								{
									OFFSET 6.133995 -4.388519 7.076070
									CHANNELS 3 Xrotation Yrotation Zrotation
									JOINT LeftHandThumb2
									{
										OFFSET 6.037666 -3.485840 3.485847
										CHANNELS 3 Xrotation Yrotation Zrotation
										JOINT LeftHandThumb3
										{
											OFFSET 6.496506 -3.750763 3.750761
											CHANNELS 3 Xrotation Yrotation Zrotation
											JOINT LeftHandThumb4
											{
												OFFSET 5.616882 -3.242905 3.242910
												CHANNELS 3 Xrotation Yrotation Zrotation
												End Site
												{
													OFFSET -1.254608 7.132141 0.375429
												}
											}
										}
									}
								}
								JOINT LeftHandPinky1
								{
									OFFSET 18.920792 -0.453171 -11.426712
									CHANNELS 3 Xrotation Yrotation Zrotation
									JOINT LeftHandPinky2
									{
										OFFSET 4.919586 0.000000 0.000000
										CHANNELS 3 Xrotation Yrotation Zrotation
										JOINT LeftHandPinky3
										{
											OFFSET 5.233047 0.000000 0.000000
											CHANNELS 3 Xrotation Yrotation Zrotation
											JOINT LeftHandPinky4
											{
												OFFSET 5.571716 0.000000 0.000000
												CHANNELS 3 Xrotation Yrotation Zrotation
												End Site
												{
													OFFSET -3.459808 4.342407 -0.466164
												}
											}
										}
									}
								}
								JOINT LeftHandRing1
								{
									OFFSET 22.726120 -0.094986 -6.500475
									CHANNELS 3 Xrotation Yrotation Zrotation
									JOINT LeftHandRing2
									{
										OFFSET 6.408615 0.000000 0.000000
										CHANNELS 3 Xrotation Yrotation Zrotation
										JOINT LeftHandRing3
										{
											OFFSET 6.150223 0.000000 0.000000
											CHANNELS 3 Xrotation Yrotation Zrotation
											JOINT LeftHandRing4
											{
												OFFSET 6.145386 0.000000 0.000000
												CHANNELS 3 Xrotation Yrotation Zrotation
												End Site
												{
													OFFSET -3.671402 4.923981 -0.202372
												}
											}
										}
									}
								}
								JOINT LeftHandMiddle1
								{
									OFFSET 23.373947 0.000000 0.000001
									CHANNELS 3 Xrotation Yrotation Zrotation
									JOINT LeftHandMiddle2
									{
										OFFSET 6.996567 0.000000 0.000000
										CHANNELS 3 Xrotation Yrotation Zrotation
										JOINT LeftHandMiddle3
										{
											OFFSET 7.015945 0.000000 0.000000
											CHANNELS 3 Xrotation Yrotation Zrotation
											JOINT LeftHandMiddle4
											{
												OFFSET 7.721573 0.000000 0.000000
												CHANNELS 3 Xrotation Yrotation Zrotation
												End Site
												{
													OFFSET -4.651108 6.158463 0.251582
												}
											}
										}
									}
								}
								JOINT LeftHandIndex1
								{
									OFFSET 21.310577 -0.490082 6.209344
									CHANNELS 3 Xrotation Yrotation Zrotation
									JOINT LeftHandIndex2
									{
										OFFSET 7.536453 0.000000 0.000000
										CHANNELS 3 Xrotation Yrotation Zrotation
										JOINT LeftHandIndex3
										{
											OFFSET 7.512344 0.000000 0.000000
											CHANNELS 3 Xrotation Yrotation Zrotation
											JOINT LeftHandIndex4
											{
												OFFSET 10.212402 0.000000 0.000001
												CHANNELS 3 Xrotation Yrotation Zrotation
												End Site
												{
													OFFSET -5.180801 8.690506 1.388433
												}
											}
										}
									}
								}
							}
						}
					}
				}
				JOINT RightShoulder
				{
					OFFSET -17.399500 24.608795 1.168800
					CHANNELS 3 Xrotation Yrotation Zrotation
					JOINT RightArm
					{
						OFFSET -18.980635 5.765305 1.818600
						CHANNELS 3 Xrotation Yrotation Zrotation
						JOINT RightForeArm
						{
							OFFSET -49.290169 0.000000 0.000000
							CHANNELS 3 Xrotation Yrotation Zrotation
							JOINT RightHand
							{
								OFFSET -31.562012 0.000000 0.000000
								CHANNELS 3 Xrotation Yrotation Zrotation
								JOINT RightHandThumb1
								{
									OFFSET -6.133995 -4.388519 7.076070
									CHANNELS 3 Xrotation Yrotation Zrotation
									JOINT RightHandThumb2
									{
										OFFSET -6.037666 -3.485840 3.485847
										CHANNELS 3 Xrotation Yrotation Zrotation
										JOINT RightHandThumb3
										{
											OFFSET -6.496506 -3.750763 3.750761
											CHANNELS 3 Xrotation Yrotation Zrotation
											JOINT RightHandThumb4
											{
												OFFSET -5.616882 -3.242905 3.242910
												CHANNELS 3 Xrotation Yrotation Zrotation
												End Site
												{
													OFFSET 1.254608 7.132141 0.375429
												}
											}
										}
									}
								}
								JOINT RightHandIndex1
								{
									OFFSET -21.310577 -0.490082 6.209344
									CHANNELS 3 Xrotation Yrotation Zrotation
									JOINT RightHandIndex2
									{
										OFFSET -7.536453 0.000000 0.000000
										CHANNELS 3 Xrotation Yrotation Zrotation
										JOINT RightHandIndex3
										{
											OFFSET -7.512344 0.000000 0.000000
											CHANNELS 3 Xrotation Yrotation Zrotation
											JOINT RightHandIndex4
											{
												OFFSET -10.212402 0.000000 0.000001
												CHANNELS 3 Xrotation Yrotation Zrotation
												End Site
												{
													OFFSET 5.180801 8.690506 1.388433
												}
											}
										}
									}
								}
								JOINT RightHandMiddle1
								{
									OFFSET -23.373947 0.000000 0.000001
									CHANNELS 3 Xrotation Yrotation Zrotation
									JOINT RightHandMiddle2
									{
										OFFSET -6.996567 0.000000 0.000000
										CHANNELS 3 Xrotation Yrotation Zrotation
										JOINT RightHandMiddle3
										{
											OFFSET -7.015945 0.000000 0.000000
											CHANNELS 3 Xrotation Yrotation Zrotation
											JOINT RightHandMiddle4
											{
												OFFSET -7.721573 0.000000 0.000000
												CHANNELS 3 Xrotation Yrotation Zrotation
												End Site
												{
													OFFSET 4.651108 6.158463 0.251582
												}
											}
										}
									}
								}
								JOINT RightHandRing1
								{
									OFFSET -22.726120 -0.094986 -6.500475
									CHANNELS 3 Xrotation Yrotation Zrotation
									JOINT RightHandRing2
									{
										OFFSET -6.408615 0.000000 0.000000
										CHANNELS 3 Xrotation Yrotation Zrotation
										JOINT RightHandRing3
										{
											OFFSET -6.150223 0.000000 0.000000
											CHANNELS 3 Xrotation Yrotation Zrotation
											JOINT RightHandRing4
											{
												OFFSET -6.145386 0.000000 0.000000
												CHANNELS 3 Xrotation Yrotation Zrotation
												End Site
												{
													OFFSET 3.671402 4.923981 -0.202372
												}
											}
										}
									}
								}
								JOINT RightHandPinky1
								{
									OFFSET -18.920792 -0.453171 -11.426712
									CHANNELS 3 Xrotation Yrotation Zrotation
									JOINT RightHandPinky2
									{
										OFFSET -4.919586 0.000000 0.000000
										CHANNELS 3 Xrotation Yrotation Zrotation
										JOINT RightHandPinky3
										{
											OFFSET -5.233047 0.000000 0.000000
											CHANNELS 3 Xrotation Yrotation Zrotation
											JOINT RightHandPinky4
											{
												OFFSET -5.571716 0.000000 0.000000
												CHANNELS 3 Xrotation Yrotation Zrotation
												End Site
												{
													OFFSET 3.459808 4.342407 -0.466164
												}
											}
										}
									}
								}
							}
						}
					}
				}
			}
		}
	}
	JOINT LeftUpLeg
	{
		OFFSET 19.899099 -7.885101 -3.429500
		CHANNELS 3 Xrotation Yrotation Zrotation
		JOINT LeftLeg
		{
			OFFSET 1.745560 -36.997807 10.304700
			CHANNELS 3 Xrotation Yrotation Zrotation
			JOINT LeftFoot
			{
				OFFSET -1.745558 -29.803308 -13.615400
				CHANNELS 3 Xrotation Yrotation Zrotation
				JOINT LeftToeBase
				{
					OFFSET 1.181900 -18.539904 15.226099
					CHANNELS 3 Xrotation Yrotation Zrotation
					JOINT LeftToe_End
					{
						OFFSET -0.863701 1.402801 16.534700
						CHANNELS 3 Xrotation Yrotation Zrotation
						End Site
						{
							OFFSET 0.000000 16.616566 0.000000
						}
					}
				}
			}
		}
	}
	JOINT RightUpLeg
	{
		OFFSET -19.899099 -7.885101 -3.429500
		CHANNELS 3 Xrotation Yrotation Zrotation
		JOINT RightLeg
		{
			OFFSET -1.745560 -36.997807 10.304700
			CHANNELS 3 Xrotation Yrotation Zrotation
			JOINT RightFoot
			{
				OFFSET 1.745558 -29.803308 -13.615400
				CHANNELS 3 Xrotation Yrotation Zrotation
				JOINT RightToeBase
				{
					OFFSET -1.181900 -18.539904 15.226099
					CHANNELS 3 Xrotation Yrotation Zrotation
					JOINT RightToe_End
					{
						OFFSET 0.863701 1.402801 16.534700
						CHANNELS 3 Xrotation Yrotation Zrotation
						End Site
						{
							OFFSET 0.000000 16.616566 0.000000
						}
					}
				}
			}
		}
	}
}
MOTION
Frames: 4
Frame Time: 0.033333
-1.213523 92.561584 1.308018 2.912703 -28.995577 1.056273 7.836787 -0.339492 -2.550050 1.099257 -0.880580 2.383463 1.108681 -0.590420 2.446362 -3.841871 18.019045 -6.496511 -6.333608 12.972328 0.301169 -0.000000 0.000000 0.000000 -0.052367 -8.759630 -0.047072 -55.250773 0.329404 -41.449389 11.611159 -65.824828 13.029981 -50.191071 12.352936 4.610886 17.551612 -5.699161 -12.932287 10.850522 26.127709 8.644773 20.927119 51.116244 0.218710 0.000003 -0.000000 0.000001 10.027834 13.641960 -84.747034 0.859043 -0.012533 -64.599902 1.045915 1.366980 -55.016750 -0.000001 0.000003 -0.000000 8.589488 2.140620 -75.146616 -0.205932 1.009576 -57.855363 0.427566 1.741599 -53.581140 -0.000001 -0.000000 0.000007 7.504765 1.174507 -63.778496 1.798154 1.430520 -64.563879 0.133101 -0.904744 -43.276680 -0.000000 -0.000001 0.000004 13.980917 1.201482 -55.004340 0.365317 1.163338 -65.442679 1.957489 2.137627 -57.660197 -0.000000 0.000003 0.000001 4.849276 7.760132 5.560486 -0.933105 -2.177062 61.845676 11.306750 18.944216 -3.991017 -0.453495 6.619726 5.830348 15.788512 -2.734485 -17.205918 -2.198302 -31.113530 7.361253 -6.564966 -4.137556 2.407249 0.000003 -0.000001 0.000002 2.376801 -3.654596 8.487780 -2.146067 -2.481424 18.672759 -1.901275 -4.805880 14.174008 -0.000001 -0.000003 0.000001 -1.985625 -5.674563 13.663460 0.282032 -5.072170 26.988599 -0.673493 -1.206044 16.126037 0.000000 -0.000000 -0.000006 -3.256098 -8.555875 11.770673 4.046102 -4.061490 33.263622 2.101712 -3.152413 15.593291 -0.000000 -0.000001 -0.000002 -6.480031 -11.330571 23.261971 10.715090 -2.557683 34.822610 6.383711 -3.068917 15.308568 -0.000000 -0.000001 -0.000001 -13.613244 18.047771 14.225772 17.103733 10.527321 -2.458229 -4.762784 -1.686790 -8.505251 -0.075067 0.007601 -0.295687 0.000000 0.000000 0.000000 -9.528594 -1.105482 -9.788150 13.112356 9.995542 1.017425 -6.839866 -1.414716 7.752701 -1.288068 -0.012845 0.150039 -0.000000 -0.000000 0.000000 
-1.099007 92.351173 1.564717 3.560542 -28.094190 1.304349 7.828382 -0.313839 -2.533542 1.087921 -0.842298 2.409518 1.097709 -0.552245 2.472877 -3.726646 20.684415 -6.897487 -6.673876 14.434719 -0.174096 0.000000 -0.000000 -0.000000 -0.147019 -9.052763 -0.043335 -54.976756 0.445067 -41.217518 11.809109 -66.247842 13.155380 -50.463883 12.327896 4.687718 17.551614 -5.699173 -12.932296 10.850486 26.127721 8.644789 20.927131 51.116193 0.218704 0.000002 -0.000002 -0.000002 10.060577 13.643976 -84.772661 0.861585 -0.011715 -64.720660 1.038928 1.366448 -54.738608 -0.000000 0.000001 0.000001 8.590504 2.131311 -75.208429 -0.205293 1.011410 -57.934737 0.427267 1.741419 -53.561855 -0.000000 -0.000000 0.000005 7.566001 1.129932 -63.861640 1.801660 1.428763 -64.693141 0.134196 -0.902729 -43.400996 0.000001 -0.000001 0.000001 13.996535 1.002789 -55.131180 0.368082 1.165791 -65.629252 1.963664 2.134630 -57.854721 -0.000000 0.000002 -0.000003 4.846289 7.867195 5.880837 -0.203579 -2.523997 61.471716 11.337828 19.403314 -4.107763 -0.402536 5.919287 5.886776 15.788513 -2.734483 -17.205914 -2.198319 -31.113533 7.361205 -6.564937 -4.137557 2.407245 0.000003 0.000004 0.000001 2.376820 -3.654590 8.487776 -2.146080 -2.481460 18.672844 -1.901253 -4.805862 14.174004 -0.000000 -0.000003 -0.000001 -1.985619 -5.674591 13.663506 0.282033 -5.072179 26.988545 -0.673453 -1.206052 16.126054 0.000001 -0.000000 -0.000004 -3.256072 -8.555883 11.770693 4.046099 -4.061493 33.263609 2.101722 -3.152418 15.593330 -0.000001 -0.000002 0.000002 -6.479983 -11.330581 23.261999 10.715058 -2.557683 34.822681 6.383718 -3.068912 15.308595 0.000002 0.000001 0.000003 -14.752741 17.674055 14.114809 17.785645 10.227554 -2.479777 -5.044084 -1.985425 -8.219124 -0.057009 0.022519 -0.287238 0.000000 -0.000000 0.000000 -9.809852 -1.519755 -10.248720 13.394140 9.707878 1.444169 -7.422061 -1.559699 7.706467 -1.287955 -0.012873 0.150053 -0.000000 -0.000001 -0.000000 
-0.914299 91.943413 1.929220 4.326783 -26.865340 1.612420 7.810312 -0.266413 -2.493183 1.057535 -0.776581 2.475969 1.067645 -0.485849 2.540048 -2.754207 26.409712 -8.514119 -7.962399 17.373756 -0.528585 0.000000 0.000001 -0.000000 -0.279168 -9.205517 -0.037808 -54.929454 0.403679 -41.309906 12.024892 -66.691231 13.303678 -50.987123 12.464857 4.689742 17.551607 -5.699153 -12.932255 10.854234 26.137802 8.645250 20.927126 51.116241 0.218706 0.000001 0.000001 -0.000002 10.160997 13.666645 -84.846276 0.863653 -0.013819 -65.009618 1.046792 1.360271 -55.041844 -0.000000 0.000002 0.000001 8.594342 2.096702 -75.438319 -0.203723 1.016170 -58.140933 0.429802 1.743274 -53.729738 -0.000001 0.000000 0.000005 7.592274 1.086228 -64.053330 1.807234 1.425855 -64.898914 0.135411 -0.899895 -43.576412 0.000002 -0.000002 0.000001 14.042160 0.902110 -55.320595 0.371219 1.164885 -65.850564 1.971144 2.127566 -58.075589 -0.000001 0.000003 -0.000005 4.826910 8.267838 6.446417 1.023434 -3.761879 61.216793 11.375525 19.974584 -4.449305 -0.072226 5.181970 6.098262 15.788513 -2.734485 -17.205916 -2.198316 -31.113554 7.361201 -6.564950 -4.137568 2.407306 -0.000001 0.000000 -0.000000 2.376795 -3.654598 8.487789 -2.146073 -2.481438 18.672860 -1.901248 -4.805880 14.173983 -0.000000 0.000000 0.000001 -1.985636 -5.674570 13.663486 0.282031 -5.072178 26.988523 -0.673474 -1.206037 16.126082 0.000001 0.000003 -0.000004 -3.256100 -8.555860 11.770652 4.046096 -4.061500 33.263612 2.101706 -3.152417 15.593293 0.000000 -0.000000 0.000002 -6.480015 -11.330550 23.262000 10.715056 -2.557682 34.822620 6.383704 -3.068923 15.308576 -0.000000 -0.000000 0.000002 -16.389454 17.258928 13.835804 19.077482 9.717128 -2.292389 -5.650817 -2.363831 -7.901360 -0.078205 0.059555 -0.263699 -0.000000 0.000000 0.000000 -10.220319 -1.956453 -10.852191 14.273264 9.282165 1.848820 -8.626384 -1.873304 7.574885 -1.288221 -0.012820 0.150076 -0.000000 0.000002 -0.000000 
-0.616323 91.391998 2.419162 5.127724 -25.147939 1.896805 7.757945 -0.110369 -2.509534 1.007941 -0.534356 2.559429 1.021154 -0.237753 2.625298 -0.119491 33.629905 -11.331192 -10.143386 21.074788 -0.353343 0.000000 0.000001 0.000000 -0.506850 -9.323149 -0.028287 -54.940437 -0.491094 -41.928728 12.210839 -67.060075 13.433493 -51.185745 12.632647 4.557789 17.551628 -5.699170 -12.932257 10.856172 26.143123 8.645501 20.927131 51.116221 0.218723 0.000002 0.000001 -0.000002 10.285932 13.694651 -84.937241 0.863606 -0.017986 -65.290577 1.082474 1.335239 -56.422301 0.000002 0.000001 0.000003 8.608890 2.044669 -75.783654 -0.201848 1.021475 -58.370592 0.437254 1.748741 -54.225002 0.000000 0.000001 0.000003 7.442415 1.101050 -64.511055 1.815815 1.421316 -65.215172 0.136520 -0.896548 -43.788182 0.000002 -0.000001 0.000006 14.243296 1.577482 -55.898620 0.376402 1.162451 -66.215091 1.981845 2.116301 -58.388419 -0.000001 -0.000000 -0.000001 4.760285 9.022990 6.918691 2.535807 -5.060365 61.030438 11.386765 20.119625 -4.376281 -0.535776 4.984984 6.097259 15.788513 -2.734484 -17.205921 -2.198300 -31.113557 7.361249 -6.564981 -4.137562 2.407231 -0.000001 0.000000 -0.000001 2.376803 -3.654590 8.487762 -2.146062 -2.481437 18.672873 -1.901273 -4.805879 14.173987 -0.000001 -0.000003 -0.000002 -1.985631 -5.674561 13.663500 0.282047 -5.072193 26.988582 -0.673501 -1.206044 16.126077 0.000001 0.000001 -0.000008 -3.256079 -8.555889 11.770695 4.046076 -4.061478 33.263547 2.101720 -3.152440 15.593332 0.000001 0.000001 -0.000003 -6.480014 -11.330572 23.261936 10.715076 -2.557697 34.822661 6.383695 -3.068891 15.308546 0.000000 -0.000001 0.000004 -18.290157 18.211671 13.794941 20.810395 8.848729 -2.178696 -7.253301 -2.706401 -7.905356 -0.127223 0.113513 -0.228619 -0.000000 0.000000 -0.000000 -10.361575 -2.197557 -11.258459 15.630743 8.422693 1.760109 -10.698200 -2.618718 7.274395 -1.288085 -0.012811 0.150063 0.000000 -0.000002 -0.000000 
